# xmcd
#
# Track frame offsets:
#	150
#	13507
#	27840
#	40807
#	56477
#	65934
#	80740
#	95519
#	110323
#	122578
#	132142
#	146208
#	159461
#	167994
#	181029
#	192655
#
# Disc length: 2730
#
# Revision: 1
# Processed by: cddbd v1.5.1PL0 Copyright (c) Steve Scherf et al.
# Submitted via: audiograbber 1.82.00
# Normalized: r0:DSETVAR1
#
DISCID=df0aa810
DTITLE=Various Artist - Country Festival Volume One
DYEAR=1900
DGENRE=Country
TTITLE0=Bobby Bare - Detroit City
TTITLE1=The Bellamy Brothers - If I said you had a beautiful body
TTITLE2=Kenny Rogers - Ruby, dont take your love to town
TTITLE3=Billie Jo Spears - Blanket on the ground
TTITLE4=Donna Fargo - Sticks and stones
TTITLE5=Frankie Laine - Sixteens Tons
TTITLE6=Jeannie C. Riley - Harper Valley P.T.A.
TTITLE7=Willie Nelson - Face of the fighter
TTITLE8=Freddy Fender - Wasted days and wasted nights
TTITLE9=Dolly Parton - Release me
TTITLE10=Sammy's Saloon - Country Guitar No.1
TTITLE11=Patti Page - Tennessee Waltz
TTITLE12=Conway Twitty - Blue ist the way that I feel
TTITLE13=Stu Stevens - Love Me tender
TTITLE14=Jonny Earle - Skiff-A-Billy Line Dance
TTITLE15=Ray Price - Let it rain. Let her cry
EXTD=
EXTT0=
EXTT1=
EXTT2=
EXTT3=
EXTT4=
EXTT5=
EXTT6=
EXTT7=
EXTT8=
EXTT9=
EXTT10=
EXTT11=
EXTT12=
EXTT13=
EXTT14=
EXTT15=
PLAYORDER=
